<svg id='Analytics_Board_Bars_24' viewBox='0 0 24 24' xmlns='http://www.w3.org/2000/svg' xmlns:xlink='http://www.w3.org/1999/xlink'><rect width='24' height='24' stroke='none' fill='#000000' opacity='0'/>
  <g transform="matrix(0.83 0 0 0.83 12 12)" >
    <g style="" >
      <g transform="matrix(1 0 0 1 0 0)" >
        <rect style="stroke: rgb(0,0,0); stroke-width: 1; stroke-dasharray: none; stroke-linecap: round; stroke-dashoffset: 0; stroke-linejoin: round; stroke-miterlimit: 4; fill: none; fill-rule: nonzero; opacity: 1;" x="-11.5" y="-8.5" rx="1" ry="1" width="23" height="17" />
      </g>
      <g transform="matrix(1 0 0 1 -7.5 3.5)" >
        <line style="stroke: rgb(0,0,0); stroke-width: 1; stroke-dasharray: none; stroke-linecap: round; stroke-dashoffset: 0; stroke-linejoin: round; stroke-miterlimit: 4; fill: none; fill-rule: nonzero; opacity: 1;" x1="0" y1="1" x2="0" y2="-1" />
      </g>
      <g transform="matrix(1 0 0 1 -4.5 2)" >
        <line style="stroke: rgb(0,0,0); stroke-width: 1; stroke-dasharray: none; stroke-linecap: round; stroke-dashoffset: 0; stroke-linejoin: round; stroke-miterlimit: 4; fill: none; fill-rule: nonzero; opacity: 1;" x1="0" y1="2.5" x2="0" y2="-2.5" />
      </g>
      <g transform="matrix(1 0 0 1 -1.5 3)" >
        <line style="stroke: rgb(0,0,0); stroke-width: 1; stroke-dasharray: none; stroke-linecap: round; stroke-dashoffset: 0; stroke-linejoin: round; stroke-miterlimit: 4; fill: none; fill-rule: nonzero; opacity: 1;" x1="0" y1="1.5" x2="0" y2="-1.5" />
      </g>
      <g transform="matrix(1 0 0 1 7.5 1)" >
        <line style="stroke: rgb(0,0,0); stroke-width: 1; stroke-dasharray: none; stroke-linecap: round; stroke-dashoffset: 0; stroke-linejoin: round; stroke-miterlimit: 4; fill: none; fill-rule: nonzero; opacity: 1;" x1="0" y1="3.5" x2="0" y2="-3.5" />
      </g>
      <g transform="matrix(1 0 0 1 4.5 2.25)" >
        <line style="stroke: rgb(0,0,0); stroke-width: 1; stroke-dasharray: none; stroke-linecap: round; stroke-dashoffset: 0; stroke-linejoin: round; stroke-miterlimit: 4; fill: none; fill-rule: nonzero; opacity: 1;" x1="0" y1="2.25" x2="0" y2="-2.25" />
      </g>
      <g transform="matrix(1 0 0 1 1.5 0)" >
        <line style="stroke: rgb(0,0,0); stroke-width: 1; stroke-dasharray: none; stroke-linecap: round; stroke-dashoffset: 0; stroke-linejoin: round; stroke-miterlimit: 4; fill: none; fill-rule: nonzero; opacity: 1;" x1="0" y1="4.5" x2="0" y2="-4.5" />
      </g>
    </g>
  </g>
</svg>
