<svg id='Starfish_24' viewBox='0 0 24 24' xmlns='http://www.w3.org/2000/svg' xmlns:xlink='http://www.w3.org/1999/xlink'><rect width='24' height='24' stroke='none' fill='#000000' opacity='0'/>
<g transform="matrix(0.77 0 0 0.77 12 12)" >
<path style="stroke: none; stroke-width: 1; stroke-dasharray: none; stroke-linecap: butt; stroke-dashoffset: 0; stroke-linejoin: miter; stroke-miterlimit: 4; fill: rgb(0,0,0); fill-rule: nonzero; opacity: 1;" transform=" translate(-15, -15)" d="M 27.968 12.171 C 27.829 11.379 27.159 10.713 26.302 10.514 C 25.28 10.276 20.971 10.013 20.168 9.978 C 19.904 9.966 19.265 9.874 19.009 9.248 C 17.529 5.619999999999999 16.376 3.5649999999999995 16.189 3.236999999999999 C 15.797 2.411999999999999 15.014 1.9459999999999993 14.229 2.007999999999999 C 13.463 2.081999999999999 12.846 2.6549999999999994 12.655999999999999 3.469999999999999 C 12.643999999999998 3.518999999999999 12.636 3.569999999999999 12.633 3.618999999999999 C 12.629999999999999 3.6569999999999987 12.324 7.461999999999999 11.45 9.524999999999999 C 11.28 9.926999999999998 11.28 9.926999999999998 10.482 9.995999999999999 L 10.328 10.009999999999998 C 8.024 10.217999999999998 6.055 10.343999999999998 4.877999999999999 10.419999999999998 C 4.419999999999999 10.448999999999998 4.068999999999999 10.471999999999998 3.8469999999999995 10.488999999999999 C 2.9899999999999993 10.556 2.2739999999999996 11.154 2.0649999999999995 11.975999999999999 C 1.8679999999999994 12.754999999999999 2.1829999999999994 13.544999999999998 2.8649999999999993 13.986999999999998 C 2.938999999999999 14.035999999999998 4.744 15.213999999999999 8.48 17.415999999999997 C 8.923 17.677999999999997 9.145 17.987999999999996 8.881 18.727999999999998 C 8.477 19.863999999999997 6.391 25.388999999999996 6.391 25.388999999999996 C 6.066 26.221999999999994 6.345 27.157999999999994 7.071 27.663999999999994 C 7.747 28.133999999999993 8.606 28.106999999999996 9.247 27.603999999999996 C 9.744 27.312999999999995 12.416 25.695999999999994 14.69 23.371999999999996 C 14.985 23.069999999999997 15.135 23.023999999999997 15.136 23.017999999999997 C 15.152 23.025 15.232999999999999 23.061999999999998 15.398 23.230999999999998 C 17.721 25.636999999999997 20.298000000000002 27.311 20.742 27.592 C 21.081 27.863 21.481 28.000999999999998 21.885 28.000999999999998 C 22.248 28.000999999999998 22.614 27.889999999999997 22.936 27.663999999999998 C 23.634 27.177 23.918 26.291999999999998 23.649 25.482999999999997 C 23.504 24.770999999999997 22.423000000000002 19.442999999999998 22.228 18.627999999999997 L 22.154 18.332999999999995 C 21.973 17.639999999999993 21.978 17.602999999999994 22.285 17.346999999999994 C 22.991 16.755999999999993 26.033 14.718999999999994 27.139 13.988999999999994 C 27.783 13.569 28.094 12.89 27.968 12.171 z M 14 19 C 13.448 19 13 18.552 13 18 C 13 17.448 13.448 17 14 17 C 14.552 17 15 17.448 15 18 C 15 18.552 14.552 19 14 19 z M 16 14 C 15.448 14 15 13.552 15 13 C 15 12.448 15.448 12 16 12 C 16.552 12 17 12.448 17 13 C 17 13.552 16.552 14 16 14 z M 18.5 16 C 18.224 16 18 15.776 18 15.5 C 18 15.224 18.224 15 18.5 15 C 18.776 15 19 15.224 19 15.5 C 19 15.776 18.776 16 18.5 16 z" stroke-linecap="round" />
</g>
</svg>
